# xmcd
#
# Track frame offsets:
# 150
# 14486
# 26015
# 40478
# 55827
# 72055
# 86296
# 98171
# 111733
# 124334
# 138351
# 149984
#
# Disc length: 2161 seconds
#
# Revision: 0
# Processed by: cddbd v1.5.2PL0 Copyright (c) Steve Scherf et al.
# Submitted via: CoinsHifi v1.9a contact@coinshifi.com
#
DISCID=b4086f0c
DTITLE=EMANUEL - Enamorado
DYEAR=2000
DGENRE=Blues
TTITLE0=enamorado
TTITLE1=quem me acode
TTITLE2=nas asas do desejo
TTITLE3=parabens de amor
TTITLE4=o que tem essa mulher
TTITLE5=o carinho do teu prazer
TTITLE6=quis o destino que fosses minha
TTITLE7=nao e facil amar-te
TTITLE8=eu encostei, eu encostei
TTITLE9=segredos de amor
TTITLE10=um beijo ja nao se pede
TTITLE11=va la, da-me o teu amor
EXTD=
EXTT0=Live
EXTT1=Live
EXTT2=Live
EXTT3=Live
EXTT4=Live
EXTT5=Live
EXTT6=Live
EXTT7=Live
EXTT8=Live
EXTT9=Live
EXTT10=Live
EXTT11=Live
PLAYORDER=
